<svg width="10" height="10" viewBox="0 0 10 10" fill="none" xmlns="http://www.w3.org/2000/svg">
<path d="M9.20728 0.722195H6.91561L6.72464 0.378445C6.64825 0.225667 6.49547 0.111084 6.32359 0.111084H4.12741C3.95554 0.111084 3.80276 0.225667 3.72637 0.378445L3.5545 0.722195H1.26283C1.09096 0.722195 0.957275 0.874973 0.957275 1.02775V1.63886C0.957275 1.81074 1.09096 1.94442 1.26283 1.94442H9.20728C9.36005 1.94442 9.51283 1.81074 9.51283 1.63886V1.02775C9.51283 0.874973 9.36005 0.722195 9.20728 0.722195ZM1.96943 9.02949C1.98853 9.52602 2.38957 9.88886 2.88609 9.88886H7.56491C8.06144 9.88886 8.46248 9.52602 8.48158 9.02949L8.90172 2.55553H1.56839L1.96943 9.02949Z" fill="#F8F9FA"/>
</svg>
